<svg width="40" height="40" viewBox="0 0 40 40" fill="none" xmlns="http://www.w3.org/2000/svg">
<rect width="40" height="40" rx="20" fill="#7747EE"/>
<path fill-rule="evenodd" clip-rule="evenodd" d="M20.0007 10.5152C19.0911 10.5152 18.2108 10.8896 17.5556 11.569C16.8992 12.2497 16.524 13.1809 16.524 14.1594V17.6779C16.524 18.2563 16.0552 18.7251 15.4769 18.7251C14.8985 18.7251 14.4297 18.2563 14.4297 17.6779V14.1594C14.4297 12.6495 15.0077 11.1941 16.0481 10.1153C17.0896 9.0351 18.5106 8.4209 20.0007 8.4209C21.4907 8.4209 22.9117 9.0351 23.9533 10.1153C24.9936 11.1941 25.5716 12.6495 25.5716 14.1594V17.6779C25.5716 18.2563 25.1028 18.7251 24.5245 18.7251C23.9461 18.7251 23.4773 18.2563 23.4773 17.6779V14.1594C23.4773 13.1809 23.1021 12.2497 22.4457 11.569C21.7905 10.8896 20.9102 10.5152 20.0007 10.5152Z" fill="url(#paint0_linear_248_3309)"/>
<path d="M12.0859 17.6777H27.9193V28.2333C27.9193 28.8554 27.681 29.452 27.2568 29.8919C26.8326 30.3318 26.2573 30.579 25.6574 30.579H14.3478C13.7479 30.579 13.1726 30.3318 12.7484 29.8919C12.3242 29.452 12.0859 28.8554 12.0859 28.2333V17.6777Z" fill="#F8F8F8"/>
<path fill-rule="evenodd" clip-rule="evenodd" d="M11.0859 17.6777C11.0859 17.1254 11.5337 16.6777 12.0859 16.6777H27.9193C28.4716 16.6777 28.9193 17.1254 28.9193 17.6777V28.2333C28.9193 29.1091 28.5841 29.9561 27.9766 30.5861C27.3679 31.2173 26.5345 31.579 25.6574 31.579H14.3478C13.4708 31.579 12.6373 31.2173 12.0286 30.5861C11.4211 29.9561 11.0859 29.1091 11.0859 28.2333V17.6777ZM13.0859 18.6777V28.2333C13.0859 28.6017 13.2274 28.948 13.4683 29.1978C13.708 29.4464 14.0251 29.579 14.3478 29.579H25.6574C25.9801 29.579 26.2972 29.4464 26.5369 29.1978C26.7778 28.948 26.9193 28.6017 26.9193 28.2333V18.6777H13.0859Z" fill="#F8F8F8"/>
<circle cx="23" cy="23" r="2" fill="#7747EE"/>
<defs>
<linearGradient id="paint0_linear_248_3309" x1="24.4049" y1="13.5617" x2="14.4297" y2="13.5749" gradientUnits="userSpaceOnUse">
<stop stop-color="#C9B5F8"/>
<stop offset="1" stop-color="white"/>
</linearGradient>
</defs>
</svg>
