<svg width="41" height="40" viewBox="0 0 41 40" fill="none" xmlns="http://www.w3.org/2000/svg">
<rect x="0.5" width="40" height="40" rx="20" fill="#7747EE"/>
<path d="M8.10355 17.1464C7.90829 17.3417 7.90829 17.6583 8.10355 17.8536L14.3964 24.1464C14.7114 24.4614 15.25 24.2383 15.25 23.7929L15.25 20.5L25.3177 20.5C25.5991 20.5 25.8251 20.2678 25.8175 19.9864L25.75 17.5C25.75 15.567 24.183 14 22.25 14L15.25 14L15.25 11.2071C15.25 10.7617 14.7114 10.5386 14.3964 10.8536L8.10355 17.1464Z" fill="#F8F8F8"/>
<path d="M32.8964 22.1464C33.0917 22.3417 33.0917 22.6583 32.8964 22.8536L26.6036 29.1464C26.2886 29.4614 25.75 29.2383 25.75 28.7929L25.75 26L19.25 26C17.0409 26 15.25 24.2091 15.25 22L15.25 20C15.25 19.7239 15.4739 19.5 15.75 19.5L25.75 19.5L25.75 16.2071C25.75 15.7617 26.2886 15.5386 26.6036 15.8536L32.8964 22.1464Z" fill="url(#paint0_linear_248_2203)"/>
<defs>
<linearGradient id="paint0_linear_248_2203" x1="24.2698" y1="16.5707" x2="24.256" y2="30" gradientUnits="userSpaceOnUse">
<stop stop-color="#AC88FF"/>
<stop offset="1" stop-color="white"/>
</linearGradient>
</defs>
</svg>
