<svg width="60" height="31" viewBox="0 0 60 31" fill="none" xmlns="http://www.w3.org/2000/svg">
<path d="M0 31.0094V0H12.5072C15.2576 0 17.429 0.477736 19.0213 1.43321C20.6426 2.38868 21.8007 3.72055 22.4956 5.42882C23.2194 7.13709 23.5813 9.14937 23.5813 11.4657V23.1051H17.8922V11.596C17.8922 9.88769 17.6606 8.52687 17.1974 7.51349C16.7342 6.50011 16.0393 5.77627 15.1128 5.34196C14.2153 4.8787 13.0717 4.64707 11.6821 4.64707H5.68903V31.0094H0ZM8.94611 7.90437H14.6351V26.3624H20.6282C22.0179 26.3624 23.1615 26.1452 24.059 25.7109C24.9854 25.2476 25.6803 24.5093 26.1435 23.4959C26.6067 22.4826 26.8383 21.1217 26.8383 19.4135V0H32.5274V19.5438C32.5274 21.8311 32.151 23.8434 31.3982 25.5806C30.6745 27.2889 29.4874 28.6207 27.8372 29.5762C26.1869 30.5317 23.9866 31.0094 21.2362 31.0094H8.94611V7.90437Z" fill="#F6C308"/>
<path d="M59.4141 31.0094V0H46.9069C44.1565 0 41.9851 0.477736 40.3927 1.43321C38.7714 2.38868 37.6133 3.72055 36.9185 5.42882C36.1947 7.13709 35.8328 9.14937 35.8328 11.4657V23.1051H41.5218V11.596C41.5218 9.88769 41.7535 8.52687 42.2167 7.51349C42.6799 6.50011 43.3748 5.77627 44.3012 5.34196C45.1987 4.8787 46.3423 4.64707 47.732 4.64707H53.725V31.0094H59.4141ZM50.468 7.90437H44.7789V26.3624H38.7859C37.3962 26.3624 36.2526 26.1452 35.3551 25.7109C34.4286 25.2476 33.7338 24.5093 33.2706 23.4959C32.8073 22.4826 32.5757 21.1217 32.5757 19.4135V0H26.8867V19.5438C26.8867 21.8311 27.2631 23.8434 28.0158 25.5806C28.7396 27.2889 29.9266 28.6207 31.5769 29.5762C33.2271 30.5317 35.4275 31.0094 38.1779 31.0094H50.468V7.90437Z" fill="#F6C308"/>
</svg>
